<?xml version="1.0" standalone="no"?><!-- Generator: Gravit.io --><svg xmlns="http://www.w3.org/2000/svg" xmlns:xlink="http://www.w3.org/1999/xlink" style="isolation:isolate" viewBox="0 0 500 400" width="500" height="400"><defs><clipPath id="_clipPath_QdyvTNKcLd4RjMUcpOaNHL0sLZGwv0nE"><rect width="500" height="400"/></clipPath></defs><g clip-path="url(#_clipPath_QdyvTNKcLd4RjMUcpOaNHL0sLZGwv0nE)"><g id="Group"><path d=" M 399.324 383.932 L 459.207 383.932 L 399.324 383.932 L 431.251 383.932 L 459.207 383.932 L 91.357 16.068 L 63.4 16.068 L 31.474 16.068 L 3.518 16.068 L 371.368 383.932 L 431.251 383.932 L 371.368 383.932 L 399.324 383.932 Z " fill="rgb(173,216,230)"/><path d=" M 91.357 383.932 L 31.474 383.932 L 68.749 383.932 L 91.357 383.932 L 31.474 383.932 L 399.324 16.068 L 436.6 16.068 L 459.207 16.068 L 496.482 16.068 L 128.632 383.932 L 68.749 383.932 L 128.632 383.932 L 91.357 383.932 Z " fill="rgb(173,216,230)"/><rect x="86.921" y="16.068" width="326.158" height="51.879" transform="matrix(1,0,0,1,0,0)" fill="rgb(173,216,230)"/></g></g></svg>